<svg width="20" height="20" viewBox="0 0 20 20" fill="none" xmlns="http://www.w3.org/2000/svg">
<circle cx="10" cy="10" r="9.5" fill="#E16F6B"/>
<g clip-path="url(#clip0_0_1419)">
<path d="M10.2285 14.2451H9.51074L9.16211 7.00586H10.5771L10.2285 14.2451ZM9.03906 16.2754C9.03906 15.6556 9.3125 15.3457 9.85938 15.3457C10.1237 15.3457 10.3265 15.4255 10.4678 15.585C10.6136 15.7445 10.6865 15.9746 10.6865 16.2754C10.6865 16.5671 10.6136 16.7949 10.4678 16.959C10.3219 17.1185 10.1191 17.1982 9.85938 17.1982C9.6224 17.1982 9.42643 17.1276 9.27148 16.9863C9.11654 16.8405 9.03906 16.6035 9.03906 16.2754Z" fill="white"/>
</g>
<defs>
<clipPath id="clip0_0_1419">
<rect width="5" height="16" fill="white" transform="translate(8 2)"/>
</clipPath>
</defs>
</svg>
