<svg width="33" height="20" viewBox="0 0 33 20" fill="none" xmlns="http://www.w3.org/2000/svg">
<rect width="33" height="20" rx="4" fill="#E16F6B"/>
<circle cx="23" cy="10" r="7" fill="white"/>
<rect x="20" y="9" width="6" height="2" fill="#E16F6B"/>
<path d="M13.1895 8.69775C13.1895 9.89404 12.8354 10.8193 12.1274 11.4736C11.4243 12.123 10.4233 12.4478 9.12451 12.4478H8.31152V16H5.41846V5.29199H9.12451C10.4771 5.29199 11.4927 5.5874 12.1714 6.17822C12.8501 6.76904 13.1895 7.60889 13.1895 8.69775ZM8.31152 10.0894H8.83887C9.27344 10.0894 9.61768 9.96729 9.87158 9.72314C10.1304 9.479 10.2598 9.14209 10.2598 8.7124C10.2598 7.98975 9.85938 7.62842 9.05859 7.62842H8.31152V10.0894Z" fill="white"/>
</svg>
