<svg width="12" height="21" viewBox="0 0 12 21" fill="none" xmlns="http://www.w3.org/2000/svg">
<path d="M6.03768 20.9997H5.99391C5.97942 20.9997 5.96509 20.9991 5.9506 20.9975C5.62241 20.9642 5.43178 20.8074 5.32992 20.6822C5.31467 20.6632 5.30064 20.6431 5.28859 20.6216C5.20349 20.4727 5.1521 20.2798 5.13182 20.0311C4.87058 17.2164 3.87824 14.4231 2.18299 11.7333C1.6076 10.806 1.10752 9.91315 0.695164 9.07797C-0.0767992 7.47578 -0.206299 5.84409 0.309023 4.22494C0.817613 2.59325 1.8501 1.38323 3.37728 0.631012C4.20433 0.227909 5.07315 0.0181379 5.96177 0.00596745C6.02521 -0.00167044 6.09232 -0.0021377 6.16338 0.00549986C6.25961 0.00612335 6.35935 0.0101761 6.46229 0.0178136C7.42474 0.0899826 8.33229 0.385674 9.1604 0.896922C9.2092 0.926694 9.25434 0.957711 9.2946 0.988265C9.42255 1.07727 9.56499 1.18092 9.70758 1.28832C10.3499 1.79848 10.8732 2.41838 11.2717 3.13696C11.781 4.0742 12.0238 5.10063 11.9956 6.19143C12.0247 6.86759 11.9093 7.58134 11.6528 8.31253C11.4778 8.81738 11.1843 9.44618 10.7804 10.1796C10.7537 10.2296 10.5909 10.5198 9.51998 12.3978C9.02435 13.264 8.62843 14.0027 8.34265 14.5942C7.56916 16.1965 7.0947 18.0184 6.93244 20.0086C6.9117 20.2732 6.85817 20.4643 6.76407 20.6074C6.64054 20.8064 6.45144 20.9355 6.21687 20.9808C6.15587 20.9935 6.09593 21 6.03768 21V20.9997Z" fill="#E16F6B"/>
<circle cx="6" cy="7" r="3" fill="white"/>
</svg>
