<svg width="30" height="30" viewBox="0 0 30 30" fill="none" xmlns="http://www.w3.org/2000/svg">
<circle cx="15" cy="15" r="15" fill="#2C87EC"/>
<path d="M22.7966 2.32482C20.2254 0.749088 17.3507 -0.00548794 14.5161 3.00409e-05V30C19.6413 29.9945 24.6519 27.5254 27.5953 23.0202C32.1708 16.0182 30.0234 6.75795 22.7966 2.32482Z" fill="#025ABD"/>
<path d="M14.5161 5.8064L7.74194 7.89881V17.6111C7.74194 19.9418 8.98345 22.0865 10.9771 23.1967L14.5161 25.1612L18.0552 23.1967C20.0488 22.0924 21.2903 19.9476 21.2903 17.6111V7.89881L14.5161 5.8064Z" fill="white"/>
<path d="M18.8733 11.8203C19.2525 11.4995 19.8115 11.5573 20.1219 11.9492C20.4281 12.3358 20.3779 12.9032 20.0124 13.2264L19.9972 13.2395L14.2157 18.1291C13.7191 18.5526 12.9904 18.4402 12.6281 17.8986L12.6168 17.8814L10.7922 15.0278C10.5221 14.6053 10.6345 14.0364 11.0434 13.7572C11.4469 13.4817 11.9882 13.5913 12.2621 14.0002L12.2729 14.0168L13.6778 16.2142L18.8733 11.8203Z" fill="#025ABD"/>
</svg>
